<svg xmlns="http://www.w3.org/2000/svg" xmlns:xlink="http://www.w3.org/1999/xlink" viewBox="0 0 67 67"><defs><style>.cls-1{fill:none;}.cls-2{clip-path:url(#clip-path);}.cls-3{fill:#1da1f2;}.cls-4{fill:#fff;}</style><clipPath id="clip-path"><rect class="cls-1" width="67" height="67"/></clipPath></defs><title>twitter logo</title><g id="Camada_2" data-name="Camada 2"><g id="Camada_1-2" data-name="Camada 1"><g class="cls-2"><g class="cls-2"><path class="cls-3" d="M50.75,67H16.25A16.24,16.24,0,0,1,0,50.75V16.25A16.24,16.24,0,0,1,16.25,0h34.5A16.24,16.24,0,0,1,67,16.25v34.5A16.24,16.24,0,0,1,50.75,67"/></g><g class="cls-2"><path class="cls-4" d="M25.73,50.52c15.8,0,24.45-13.1,24.45-24.45q0-.55,0-1.11a17.29,17.29,0,0,0,4.29-4.45,17.06,17.06,0,0,1-4.94,1.36,8.61,8.61,0,0,0,3.78-4.76,17.23,17.23,0,0,1-5.45,2.09A8.6,8.6,0,0,0,33,25.07a8.41,8.41,0,0,0,.23,2,24.37,24.37,0,0,1-17.71-9,8.58,8.58,0,0,0,2.66,11.47,8.51,8.51,0,0,1-3.89-1.08.41.41,0,0,0,0,.11A8.59,8.59,0,0,0,21.14,37a8.35,8.35,0,0,1-3.88.15,8.6,8.6,0,0,0,8,6,17.35,17.35,0,0,1-12.72,3.56,24.38,24.38,0,0,0,13.17,3.86"/></g></g></g></g></svg>